<svg width="24" height="24" viewBox="0 0 24 24" fill="none" xmlns="http://www.w3.org/2000/svg">
  <path fill-rule="evenodd" clip-rule="evenodd"
    d="M2.90255 9.3983L2.8906 9.40627C2.3342 9.7772 2 10.4017 2 11.0704V19C2 19.5523 2.44772 20 3 20H4C4.55228 20 5 19.5523 5 19V18H19V19C19 19.5523 19.4477 20 20 20H21C21.5523 20 22 19.5523 22 19V11.0704C22 10.4017 21.6658 9.7772 21.1094 9.40627L21.0974 9.3983C21.4619 9.1878 21.792 8.98103 21.8561 8.88889C22.0108 8.66667 22.0819 8 21.8561 8H20L18.8292 5.65836C18.321 4.64201 17.2822 4 16.1459 4H7.8541C6.71779 4 5.679 4.64201 5.17082 5.65836L4 8H2.14388C1.91814 8 1.9892 8.66667 2.14388 8.88889C2.20802 8.98103 2.5381 9.1878 2.90255 9.3983ZM6.10196 6.05882L4.39216 9.26471C4.21453 9.59776 4.45587 10 4.83333 10H19.1667C19.5441 10 19.7855 9.59776 19.6078 9.26471L17.898 6.05882C17.5505 5.4071 16.872 5 16.1333 5H7.86667C7.12805 5 6.44955 5.4071 6.10196 6.05882ZM3 13.0799V11.8705C3 11.4846 3.41861 11.2442 3.75194 11.4386L7.09077 13.3863C7.5509 13.6547 7.32817 14.3607 6.79731 14.3164L3.91695 14.0764C3.39866 14.0332 3 13.6 3 13.0799ZM21 11.8705V13.0799C21 13.6 20.6013 14.0332 20.083 14.0764L17.2027 14.3164C16.6718 14.3607 16.4491 13.6547 16.9092 13.3863L20.2481 11.4386C20.5814 11.2442 21 11.4846 21 11.8705Z"
    fill="white" />
</svg>