<svg width="24" height="24" viewBox="0 0 24 24" fill="none" xmlns="http://www.w3.org/2000/svg">
  <path
    d="M14.7803 11.0303C15.0732 10.7374 15.0732 10.2626 14.7803 9.96967C14.4874 9.67678 14.0126 9.67678 13.7197 9.96967L10.875 12.8143L10.2803 12.2197C9.98743 11.9268 9.51256 11.9268 9.21967 12.2197C8.92677 12.5126 8.92677 12.9874 9.21967 13.2803L10.0795 14.1402C10.5188 14.5795 11.2312 14.5795 11.6705 14.1402L14.7803 11.0303Z"
    fill="white" />
  <path fill-rule="evenodd" clip-rule="evenodd"
    d="M13.081 3.53373C12.4646 2.96537 11.5275 2.99492 10.931 3.53071C9.16279 5.11888 6.71252 5.79814 5.16873 5.96091C4.4188 6.03998 3.73545 6.67102 3.76185 7.52809C3.91328 12.4452 5.49431 15.6639 7.24341 17.721C8.98278 19.7666 10.849 20.618 11.5201 20.8755C11.8299 20.9944 12.1677 20.9954 12.4782 20.8786C14.8196 19.9978 19.9396 16.0193 20.2365 7.52738C20.2667 6.66317 19.5695 6.02407 18.7917 5.98107C16.7466 5.86801 14.9234 5.23277 13.081 3.53373ZM11.9333 4.64666C11.9529 4.62906 11.98 4.61833 12.009 4.61813C12.0368 4.61793 12.054 4.6271 12.0641 4.63643C14.1806 6.58825 16.3414 7.3479 18.7089 7.47878C18.7216 7.47949 18.7312 7.48383 18.737 7.48793C18.4605 15.2514 13.851 18.726 12.0036 19.454C11.4359 19.2286 9.86573 18.4894 8.38615 16.7493C6.86718 14.9629 5.40364 12.0757 5.2613 7.48707C5.2613 7.48707 5.26384 7.48358 5.26619 7.48109C5.27891 7.46758 5.30099 7.45528 5.32602 7.45264C7.05551 7.27029 9.84933 6.51846 11.9333 4.64666Z"
    fill="white" />
</svg>