<svg width="24" height="24" viewBox="0 0 24 24" fill="none" xmlns="http://www.w3.org/2000/svg">
  <path fill-rule="evenodd" clip-rule="evenodd"
    d="M11.5 2C10.9477 2 10.5 2.44772 10.5 3V4.1404C9.40602 4.34792 8.3909 4.77818 7.50358 5.38224L6.69668 4.57535C6.30616 4.18483 5.67299 4.18483 5.28247 4.57535L4.57536 5.28246C4.18484 5.67298 4.18484 6.30615 4.57536 6.69667L5.38225 7.50356C4.77819 8.39088 4.34792 9.40602 4.1404 10.5H3C2.44772 10.5 2 10.9477 2 11.5V12.5C2 13.0523 2.44772 13.5 3 13.5H4.1404C4.34792 14.594 4.77819 15.6091 5.38225 16.4964L4.57538 17.3033C4.18485 17.6938 4.18485 18.327 4.57538 18.7175L5.28248 19.4246C5.67301 19.8152 6.30617 19.8152 6.6967 19.4246L7.50358 18.6178C8.3909 19.2218 9.40602 19.6521 10.5 19.8596V21C10.5 21.5523 10.9477 22 11.5 22H12.5C13.0523 22 13.5 21.5523 13.5 21V19.8596C14.594 19.6521 15.6091 19.2218 16.4964 18.6177L17.3033 19.4246C17.6938 19.8151 18.327 19.8151 18.7175 19.4246L19.4246 18.7175C19.8151 18.327 19.8151 17.6938 19.4246 17.3033L18.6178 16.4964C19.2218 15.6091 19.6521 14.594 19.8596 13.5H21C21.5523 13.5 22 13.0523 22 12.5V11.5C22 10.9477 21.5523 10.5 21 10.5H19.8596C19.6521 9.40602 19.2218 8.3909 18.6178 7.50358L19.4246 6.69671C19.8151 6.30619 19.8151 5.67302 19.4246 5.2825L18.7175 4.57539C18.327 4.18487 17.6938 4.18487 17.3033 4.57539L16.4964 5.38225C15.6091 4.77819 14.594 4.34792 13.5 4.1404V3C13.5 2.44772 13.0523 2 12.5 2H11.5ZM12 15.5C13.933 15.5 15.5 13.933 15.5 12C15.5 10.067 13.933 8.5 12 8.5C10.067 8.5 8.5 10.067 8.5 12C8.5 13.933 10.067 15.5 12 15.5Z"
    fill="white" />
</svg>